<?xml version="1.0" encoding="UTF-8"?>
<svg id="_圖層_1" data-name="圖層_1" xmlns="http://www.w3.org/2000/svg" version="1.1" viewBox="0 0 818.3 747.9">
  <!-- Generator: Adobe Illustrator 29.1.0, SVG Export Plug-In . SVG Version: 2.1.0 Build 142)  -->
  <defs>
    <style>
      .st0 {
        fill: #fff;
      }
    </style>
  </defs>
  <path class="st0" d="M629.8,167.9H217.7v105.4l-108.7,1.7,110.3,115.9,178.4,187.3,96.9,101.7,6.2-99.8h129V167.9ZM406.6,569.7l-178.4-187.3-91.1-95.7,86.8-1.4,283.4-4.4-18.5,295.8-4.7,74.4-77.6-81.5ZM617.6,567.8h-116l18.7-299.2-290.4,4.5v-93h387.7v387.7Z"/>
  <path class="st0" d="M812,8.1c-16.3-17.3-35.6,2-35.6,2l-99.4,86-.5-.6-.6-.5C607.3,33.8,518.8,0,426.8,0,220.6,0,52.9,167.7,52.9,373.9s23.9,150.1,64.8,210.1l-80,69.2-5.1,24.4L0,706.1v16.3l20.3-4.1,28.5-29.5,32.6-5.1,67.2-60.3c68.5,76.3,167.8,124.4,278.2,124.4,206.2,0,373.9-167.7,373.9-373.9s-32.3-176.4-91.5-244.8l98.6-88.4s20.3-15.3,4.1-32.6ZM776.3,373.9c0,192.7-156.8,349.5-349.5,349.5s-196-45-260-116.3l250.4-224.6s20.3-15.3,4.1-32.6c-16.3-17.3-35.6,2-35.6,2l-249.4,215.8c-37.2-55.5-58.9-122.2-58.9-194C77.3,181.2,234.1,24.4,426.8,24.4s168.4,31.5,232.5,88.6l31.7,32.2c55,63.5,85.3,144.7,85.3,228.7Z"/>
</svg>